<svg xmlns="http://www.w3.org/2000/svg" xmlns:xlink="http://www.w3.org/1999/xlink" width="500" zoomAndPan="magnify" viewBox="0 0 375 374.999991" height="500" preserveAspectRatio="xMidYMid meet" version="1.0"><defs><g/><clipPath id="9e36d7d6d2"><path d="M 44.8125 41.832031 L 335.8125 41.832031 L 335.8125 332.832031 L 44.8125 332.832031 Z M 44.8125 41.832031 " clip-rule="nonzero"/></clipPath><clipPath id="7cea241e10"><path d="M 106.828125 87.300781 L 268.078125 87.300781 L 268.078125 286.800781 L 106.828125 286.800781 Z M 106.828125 87.300781 " clip-rule="nonzero"/></clipPath></defs><rect x="-37.5" width="450" fill="#ffffff" y="-37.499999" height="449.999989" fill-opacity="1"/><rect x="-37.5" width="450" fill="#ffffff" y="-37.499999" height="449.999989" fill-opacity="1"/><g clip-path="url(#9e36d7d6d2)"><path fill="#37343a" d="M 326.808594 226.125 C 323.121094 238.6875 317.488281 250.601562 310.496094 261.578125 C 304.726562 270.507812 298.164062 278.902344 290.789062 286.535156 C 289.835938 287.578125 288.773438 288.511719 287.761719 289.496094 C 286.730469 290.464844 285.730469 291.464844 284.679688 292.40625 L 281.484375 295.1875 L 279.882812 296.578125 L 278.226562 297.894531 L 274.917969 300.539062 C 273.792969 301.398438 272.636719 302.207031 271.503906 303.046875 C 269.257812 304.765625 266.867188 306.277344 264.53125 307.867188 C 264.191406 308.09375 263.839844 308.332031 263.46875 308.578125 C 263.085938 308.808594 262.691406 309.046875 262.277344 309.292969 C 261.453125 309.789062 260.566406 310.320312 259.621094 310.882812 C 257.75 312.058594 255.542969 313.164062 253.15625 314.429688 C 252.554688 314.742188 251.953125 315.078125 251.316406 315.382812 C 250.679688 315.679688 250.03125 315.980469 249.367188 316.289062 C 248.039062 316.902344 246.664062 317.535156 245.246094 318.191406 C 242.339844 319.328125 239.308594 320.691406 236.003906 321.75 C 222.949219 326.484375 206.660156 329.410156 190.3125 329.480469 C 173.964844 329.410156 157.671875 326.484375 144.621094 321.75 C 141.3125 320.691406 138.28125 319.328125 135.375 318.191406 C 133.957031 317.535156 132.582031 316.902344 131.257812 316.289062 C 130.59375 315.980469 129.941406 315.679688 129.304688 315.382812 C 128.671875 315.078125 128.070312 314.742188 127.46875 314.429688 C 125.082031 313.164062 122.871094 312.058594 121.003906 310.886719 C 120.058594 310.320312 119.167969 309.789062 118.34375 309.292969 C 117.933594 309.046875 117.535156 308.808594 117.15625 308.578125 C 116.785156 308.332031 116.429688 308.09375 116.09375 307.867188 C 107.214844 302.046875 98.871094 295.4375 91.285156 288.011719 C 83.285156 280.019531 76.292969 271.070312 70.125 261.578125 C 63.136719 250.601562 57.503906 238.6875 53.8125 226.125 C 49.972656 213.605469 48.195312 200.46875 48.082031 187.332031 C 48.195312 174.191406 49.972656 161.054688 53.8125 148.535156 C 57.503906 135.972656 63.136719 124.058594 70.125 113.082031 C 75.894531 104.152344 82.457031 95.757812 89.832031 88.125 C 90.785156 87.082031 91.851562 86.148438 92.863281 85.164062 C 93.890625 84.195312 94.890625 83.199219 95.945312 82.253906 L 100.738281 78.082031 L 102.394531 76.765625 L 105.707031 74.121094 C 106.828125 73.265625 107.984375 72.453125 109.121094 71.613281 C 111.367188 69.894531 113.753906 68.382812 116.09375 66.792969 C 116.429688 66.566406 116.785156 66.328125 117.152344 66.082031 C 117.535156 65.851562 117.929688 65.613281 118.34375 65.367188 C 119.167969 64.871094 120.054688 64.339844 121.003906 63.777344 C 122.871094 62.601562 125.082031 61.5 127.464844 60.230469 C 128.066406 59.921875 128.667969 59.582031 129.304688 59.277344 C 129.941406 58.980469 130.59375 58.679688 131.253906 58.371094 C 132.582031 57.757812 133.957031 57.125 135.375 56.46875 C 138.28125 55.332031 141.3125 53.96875 144.617188 52.910156 C 157.671875 48.175781 173.960938 45.25 190.3125 45.179688 C 206.660156 45.25 222.949219 48.175781 236 52.910156 C 239.308594 53.96875 242.339844 55.332031 245.246094 56.46875 C 246.664062 57.125 248.039062 57.757812 249.367188 58.371094 C 250.027344 58.679688 250.679688 58.980469 251.316406 59.277344 C 251.953125 59.582031 252.554688 59.921875 253.152344 60.230469 C 255.539062 61.496094 257.75 62.601562 259.617188 63.777344 C 260.5625 64.339844 261.453125 64.871094 262.277344 65.367188 C 262.6875 65.613281 263.085938 65.851562 263.46875 66.082031 C 263.835938 66.328125 264.191406 66.566406 264.527344 66.792969 C 273.410156 72.613281 281.753906 79.222656 289.335938 86.648438 C 297.335938 94.640625 304.328125 103.589844 310.496094 113.082031 C 317.488281 124.058594 323.121094 135.972656 326.808594 148.535156 C 330.648438 161.054688 332.425781 174.191406 332.539062 187.332031 C 332.425781 200.46875 330.648438 213.605469 326.808594 226.125 Z M 335.808594 187.234375 L 335.808594 187.222656 C 335.6875 173.804688 333.882812 160.382812 329.976562 147.582031 C 326.214844 134.742188 320.457031 122.554688 313.28125 111.363281 L 309.832031 106.175781 C 309.832031 106.175781 308.832031 104.78125 307.339844 102.691406 C 305.898438 100.554688 303.695312 97.925781 301.589844 95.21875 C 299.320312 92.648438 297.148438 89.996094 295.316406 88.191406 C 293.539062 86.332031 292.355469 85.097656 292.355469 85.097656 C 292.355469 85.097656 292.054688 84.792969 291.515625 84.273438 C 290.976562 83.753906 290.207031 83.007812 289.28125 82.117188 C 287.480469 80.28125 284.863281 78.066406 282.296875 75.796875 C 280.980469 74.703125 279.625 73.65625 278.375 72.648438 C 277.746094 72.148438 277.140625 71.664062 276.5625 71.207031 C 275.964844 70.777344 275.402344 70.371094 274.878906 69.992188 C 272.796875 68.488281 271.40625 67.488281 271.40625 67.488281 C 271.40625 67.488281 271.105469 67.242188 270.617188 66.925781 C 270.128906 66.601562 269.484375 66.167969 268.839844 65.734375 C 267.546875 64.871094 266.253906 64.003906 266.253906 64.003906 C 265.910156 63.773438 265.546875 63.527344 265.171875 63.273438 C 264.78125 63.039062 264.375 62.792969 263.953125 62.539062 C 263.109375 62.03125 262.203125 61.484375 261.238281 60.90625 C 259.328125 59.703125 257.066406 58.566406 254.625 57.265625 C 254.011719 56.945312 253.394531 56.601562 252.746094 56.289062 C 252.09375 55.984375 251.429688 55.675781 250.753906 55.359375 C 249.394531 54.730469 247.988281 54.078125 246.539062 53.40625 C 243.5625 52.238281 240.460938 50.84375 237.078125 49.753906 C 223.71875 44.902344 207.039062 41.894531 190.3125 41.832031 C 173.582031 41.894531 156.902344 44.902344 143.542969 49.753906 C 140.160156 50.84375 137.058594 52.238281 134.082031 53.40625 C 132.632812 54.078125 131.226562 54.730469 129.871094 55.359375 C 129.191406 55.675781 128.527344 55.984375 127.875 56.289062 C 127.222656 56.601562 126.609375 56.945312 125.996094 57.265625 C 123.554688 58.566406 121.292969 59.703125 119.382812 60.90625 C 118.417969 61.484375 117.511719 62.03125 116.667969 62.539062 C 116.246094 62.792969 115.839844 63.039062 115.453125 63.273438 C 115.074219 63.53125 114.710938 63.773438 114.367188 64.003906 C 114.367188 64.003906 113.074219 64.871094 111.78125 65.734375 C 111.136719 66.167969 110.492188 66.601562 110.007812 66.925781 C 109.515625 67.242188 109.214844 67.488281 109.214844 67.488281 C 109.214844 67.488281 107.824219 68.488281 105.742188 69.992188 C 105.21875 70.371094 104.65625 70.777344 104.058594 71.207031 C 103.484375 71.664062 102.875 72.148438 102.246094 72.648438 C 100.996094 73.65625 99.640625 74.703125 98.324219 75.796875 C 95.757812 78.066406 93.140625 80.28125 91.339844 82.117188 C 90.414062 83.007812 89.644531 83.753906 89.105469 84.273438 C 88.566406 84.792969 88.265625 85.097656 88.265625 85.097656 C 88.265625 85.097656 87.082031 86.332031 85.304688 88.191406 C 83.476562 89.996094 81.300781 92.648438 79.03125 95.21875 C 76.929688 97.925781 74.722656 100.554688 73.285156 102.691406 C 71.789062 104.78125 70.789062 106.179688 70.789062 106.179688 L 67.339844 111.363281 C 60.164062 122.554688 54.40625 134.746094 50.648438 147.582031 C 46.738281 160.382812 44.933594 173.808594 44.816406 187.222656 L 44.8125 187.234375 L 44.8125 187.425781 L 44.816406 187.4375 C 44.933594 200.855469 46.738281 214.277344 50.648438 227.078125 C 54.40625 239.917969 60.164062 252.105469 67.339844 263.296875 L 70.792969 268.484375 C 70.792969 268.484375 71.789062 269.878906 73.285156 271.96875 C 74.722656 274.105469 76.929688 276.738281 79.03125 279.441406 C 81.300781 282.011719 83.476562 284.664062 85.304688 286.472656 C 87.082031 288.324219 88.265625 289.5625 88.265625 289.5625 C 88.265625 289.5625 88.566406 289.867188 89.105469 290.386719 C 89.644531 290.90625 90.414062 291.652344 91.339844 292.542969 C 93.140625 294.382812 95.757812 296.59375 98.324219 298.863281 C 99.640625 299.957031 100.996094 301.003906 102.246094 302.011719 C 102.875 302.511719 103.484375 302.996094 104.058594 303.453125 C 104.65625 303.882812 105.21875 304.289062 105.742188 304.667969 C 107.824219 306.171875 109.214844 307.171875 109.214844 307.171875 C 109.214844 307.171875 109.515625 307.417969 110.007812 307.734375 C 110.492188 308.058594 111.136719 308.492188 111.78125 308.925781 C 113.074219 309.789062 114.367188 310.65625 114.367188 310.65625 C 114.714844 310.886719 115.074219 311.132812 115.453125 311.386719 C 115.839844 311.621094 116.246094 311.867188 116.667969 312.121094 C 117.511719 312.628906 118.417969 313.175781 119.386719 313.753906 C 121.292969 314.957031 123.554688 316.09375 125.996094 317.394531 C 126.609375 317.714844 127.226562 318.058594 127.875 318.371094 C 128.527344 318.675781 129.191406 318.984375 129.871094 319.300781 C 131.226562 319.929688 132.632812 320.582031 134.085938 321.253906 C 137.058594 322.421875 140.160156 323.816406 143.546875 324.90625 C 156.902344 329.757812 173.582031 332.761719 190.3125 332.832031 C 207.039062 332.761719 223.71875 329.757812 237.078125 324.90625 C 240.460938 323.816406 243.5625 322.421875 246.539062 321.253906 C 247.988281 320.582031 249.394531 319.929688 250.753906 319.300781 C 251.429688 318.984375 252.097656 318.675781 252.75 318.371094 C 253.398438 318.058594 254.015625 317.714844 254.628906 317.394531 C 257.070312 316.09375 259.328125 314.957031 261.238281 313.753906 C 262.203125 313.175781 263.109375 312.628906 263.957031 312.121094 C 264.375 311.867188 264.78125 311.621094 265.171875 311.386719 C 265.546875 311.128906 265.910156 310.886719 266.253906 310.65625 C 266.253906 310.65625 267.546875 309.789062 268.839844 308.925781 C 269.484375 308.492188 270.132812 308.058594 270.617188 307.734375 C 271.105469 307.417969 271.40625 307.171875 271.40625 307.171875 C 271.40625 307.171875 272.796875 306.171875 274.878906 304.667969 C 275.402344 304.289062 275.964844 303.882812 276.5625 303.453125 C 277.140625 302.996094 277.746094 302.511719 278.375 302.011719 C 279.625 301.003906 280.980469 299.957031 282.296875 298.863281 C 284.863281 296.59375 287.480469 294.382812 289.28125 292.542969 C 290.207031 291.652344 290.976562 290.90625 291.515625 290.386719 C 292.054688 289.867188 292.355469 289.5625 292.355469 289.5625 C 292.355469 289.5625 293.539062 288.324219 295.316406 286.472656 C 297.148438 284.664062 299.320312 282.011719 301.589844 279.441406 C 303.695312 276.738281 305.898438 274.105469 307.339844 271.96875 C 308.835938 269.878906 309.832031 268.484375 309.832031 268.484375 L 313.28125 263.296875 C 320.457031 252.105469 326.214844 239.917969 329.976562 227.078125 C 333.882812 214.277344 335.6875 200.851562 335.808594 187.4375 L 335.808594 187.425781 L 335.8125 187.332031 L 335.808594 187.234375 " fill-opacity="1" fill-rule="nonzero"/></g><path fill="#ffffff" d="M 298.441406 318.925781 C 296.574219 320.546875 294.675781 322.121094 292.742188 323.652344 C 290.804688 325.1875 288.835938 326.675781 286.835938 328.121094 C 284.832031 329.566406 282.800781 330.96875 280.734375 332.324219 C 278.671875 333.679688 276.578125 334.988281 274.457031 336.25 C 272.332031 337.511719 270.183594 338.726562 268.003906 339.890625 C 265.828125 341.058594 263.625 342.175781 261.398438 343.242188 C 259.171875 344.3125 256.921875 345.328125 254.648438 346.296875 C 252.375 347.265625 250.082031 348.183594 247.769531 349.050781 C 245.457031 349.914062 243.125 350.730469 240.773438 351.492188 C 238.421875 352.253906 236.058594 352.964844 233.675781 353.621094 C 231.292969 354.277344 228.898438 354.882812 226.488281 355.433594 C 224.082031 355.984375 221.660156 356.480469 219.230469 356.921875 C 216.796875 357.363281 214.359375 357.753906 211.910156 358.085938 C 209.460938 358.421875 207.007812 358.703125 204.546875 358.925781 C 202.085938 359.152344 199.621094 359.320312 197.152344 359.4375 C 194.683594 359.550781 192.214844 359.613281 189.742188 359.617188 C 187.269531 359.625 184.800781 359.574219 182.332031 359.46875 C 179.863281 359.363281 177.398438 359.207031 174.933594 358.992188 C 172.472656 358.777344 170.015625 358.507812 167.566406 358.183594 C 165.117188 357.859375 162.675781 357.484375 160.242188 357.050781 C 157.808594 356.617188 155.386719 356.132812 152.976562 355.59375 C 150.566406 355.054688 148.167969 354.460938 145.78125 353.8125 C 143.398438 353.167969 141.027344 352.46875 138.675781 351.714844 C 136.320312 350.960938 133.988281 350.160156 131.667969 349.300781 C 129.351562 348.445312 127.054688 347.539062 124.777344 346.582031 C 122.5 345.625 120.246094 344.613281 118.015625 343.554688 C 115.78125 342.496094 113.574219 341.390625 111.394531 340.234375 C 109.210938 339.078125 107.054688 337.871094 104.925781 336.617188 C 102.796875 335.367188 100.699219 334.066406 98.628906 332.722656 C 96.558594 331.375 94.519531 329.984375 92.511719 328.546875 C 90.503906 327.109375 88.527344 325.628906 86.585938 324.105469 C 84.644531 322.578125 82.738281 321.011719 80.867188 319.402344 L 116.019531 278.726562 C 117.285156 279.816406 118.574219 280.875 119.886719 281.90625 C 121.199219 282.9375 122.535156 283.9375 123.890625 284.910156 C 125.25 285.882812 126.628906 286.820312 128.027344 287.730469 C 129.425781 288.640625 130.847656 289.519531 132.285156 290.367188 C 133.722656 291.214844 135.179688 292.027344 136.65625 292.8125 C 138.132812 293.59375 139.625 294.339844 141.132812 295.058594 C 142.640625 295.773438 144.164062 296.453125 145.703125 297.101562 C 147.242188 297.75 148.796875 298.363281 150.363281 298.941406 C 151.929688 299.519531 153.507812 300.066406 155.101562 300.574219 C 156.691406 301.082031 158.292969 301.554688 159.90625 301.992188 C 161.515625 302.429688 163.136719 302.828125 164.769531 303.195312 C 166.398438 303.558594 168.035156 303.886719 169.679688 304.179688 C 171.324219 304.472656 172.976562 304.726562 174.632812 304.945312 C 176.289062 305.164062 177.949219 305.347656 179.613281 305.492188 C 181.277344 305.636719 182.945312 305.746094 184.613281 305.816406 C 186.285156 305.886719 187.953125 305.917969 189.625 305.914062 C 191.292969 305.914062 192.964844 305.871094 194.632812 305.792969 C 196.300781 305.714844 197.96875 305.601562 199.632812 305.449219 C 201.296875 305.296875 202.957031 305.105469 204.609375 304.882812 C 206.265625 304.65625 207.914062 304.394531 209.558594 304.09375 C 211.203125 303.792969 212.839844 303.457031 214.46875 303.085938 C 216.097656 302.714844 217.714844 302.304688 219.324219 301.863281 C 220.9375 301.417969 222.535156 300.9375 224.125 300.421875 C 225.710938 299.90625 227.289062 299.355469 228.851562 298.769531 C 230.417969 298.183594 231.96875 297.566406 233.503906 296.910156 C 235.039062 296.257812 236.5625 295.566406 238.066406 294.84375 C 239.574219 294.125 241.0625 293.367188 242.535156 292.578125 C 244.003906 291.792969 245.460938 290.96875 246.894531 290.117188 C 248.328125 289.265625 249.746094 288.378906 251.140625 287.464844 C 252.535156 286.546875 253.910156 285.601562 255.265625 284.621094 C 256.617188 283.644531 257.949219 282.640625 259.257812 281.601562 C 260.566406 280.566406 261.847656 279.5 263.109375 278.40625 Z M 298.441406 318.925781 " fill-opacity="1" fill-rule="nonzero"/><g fill="#37343a" fill-opacity="1"><g transform="translate(93.051965, 313.129053)"><g><path d="M 30.109375 -15.625 C 33.710938 -13.3125 35.976562 -10.578125 36.90625 -7.421875 C 37.84375 -4.273438 37.238281 -1.03125 35.09375 2.3125 L 27.640625 -2.46875 C 28.546875 -3.882812 28.890625 -5.238281 28.671875 -6.53125 C 28.460938 -7.832031 27.675781 -8.925781 26.3125 -9.8125 C 24.738281 -10.820312 23.257812 -11.070312 21.875 -10.5625 C 20.5 -10.050781 19.242188 -8.914062 18.109375 -7.15625 L 16.65625 -4.890625 C 15.539062 -3.148438 15.03125 -1.535156 15.125 -0.046875 C 15.226562 1.429688 16.046875 2.664062 17.578125 3.65625 C 19.085938 4.625 20.476562 4.960938 21.75 4.671875 C 23.03125 4.390625 24.125 3.546875 25.03125 2.140625 L 32.234375 6.765625 C 30.097656 10.085938 27.441406 11.976562 24.265625 12.4375 C 21.097656 12.894531 17.660156 11.929688 13.953125 9.546875 C 9.796875 6.878906 7.332031 3.800781 6.5625 0.3125 C 5.789062 -3.175781 6.738281 -6.992188 9.40625 -11.140625 C 12.0625 -15.285156 15.132812 -17.734375 18.625 -18.484375 C 22.125 -19.242188 25.953125 -18.289062 30.109375 -15.625 Z M 30.109375 -15.625 "/></g></g></g><g fill="#37343a" fill-opacity="1"><g transform="translate(123.593445, 332.266016)"><g><path d="M 21.21875 7.40625 L 21.40625 3.15625 L 11.84375 -0.171875 L 9.359375 3.265625 L 0.390625 0.140625 L 19.875 -23.671875 L 30.046875 -20.109375 L 30.5 10.640625 Z M 15.796875 -5.65625 L 21.703125 -3.59375 L 22.25 -14.296875 L 22.078125 -14.359375 Z M 15.796875 -5.65625 "/></g></g></g><g fill="#37343a" fill-opacity="1"><g transform="translate(157.751373, 343.765625)"><g><path d="M 32.390625 -16.859375 C 32.210938 -15.109375 31.578125 -13.570312 30.484375 -12.25 C 29.390625 -10.925781 27.910156 -10.015625 26.046875 -9.515625 L 31.21875 3.15625 L 20.84375 2.109375 L 16.8125 -8.90625 L 13.390625 -9.25 L 12.328125 1.25 L 3.09375 0.3125 L 6 -28.4375 L 23.59375 -26.65625 C 25.644531 -26.445312 27.363281 -25.867188 28.75 -24.921875 C 30.144531 -23.984375 31.140625 -22.800781 31.734375 -21.375 C 32.328125 -19.957031 32.546875 -18.453125 32.390625 -16.859375 Z M 22.9375 -17.4375 C 23.019531 -18.1875 22.835938 -18.835938 22.390625 -19.390625 C 21.941406 -19.941406 21.351562 -20.253906 20.625 -20.328125 L 14.5625 -20.9375 L 14.03125 -15.625 L 20.09375 -15.015625 C 20.820312 -14.941406 21.457031 -15.132812 22 -15.59375 C 22.550781 -16.0625 22.863281 -16.675781 22.9375 -17.4375 Z M 22.9375 -17.4375 "/></g></g></g><g fill="#37343a" fill-opacity="1"><g transform="translate(193.64804, 346.995812)"><g><path d="M 27.5625 -23.9375 C 27.800781 -22.195312 27.546875 -20.550781 26.796875 -19 C 26.046875 -17.457031 24.816406 -16.234375 23.109375 -15.328125 L 31.09375 -4.203125 L 20.765625 -2.796875 L 14.28125 -12.578125 L 10.875 -12.109375 L 12.28125 -1.65625 L 3.078125 -0.421875 L -0.78125 -29.046875 L 16.75 -31.40625 C 18.789062 -31.6875 20.59375 -31.53125 22.15625 -30.9375 C 23.726562 -30.351562 24.96875 -29.4375 25.875 -28.1875 C 26.789062 -26.9375 27.351562 -25.519531 27.5625 -23.9375 Z M 18.265625 -22.3125 C 18.160156 -23.0625 17.828125 -23.648438 17.265625 -24.078125 C 16.703125 -24.503906 16.054688 -24.664062 15.328125 -24.5625 L 9.296875 -23.75 L 10.015625 -18.46875 L 16.046875 -19.28125 C 16.773438 -19.382812 17.347656 -19.722656 17.765625 -20.296875 C 18.191406 -20.878906 18.359375 -21.550781 18.265625 -22.3125 Z M 18.265625 -22.3125 "/></g></g></g><g fill="#37343a" fill-opacity="1"><g transform="translate(229.3102, 341.778991)"><g><path d="M 20.953125 -8.109375 L 18.34375 -11.46875 L 8.90625 -7.8125 L 9.234375 -3.578125 L 0.390625 -0.15625 L -0.1875 -30.890625 L 9.859375 -34.78125 L 30.125 -11.65625 Z M 8.375 -14.546875 L 14.203125 -16.796875 L 7.6875 -25.296875 L 7.515625 -25.234375 Z M 8.375 -14.546875 "/></g></g></g><g fill="#37343a" fill-opacity="1"><g transform="translate(262.442926, 328.320646)"><g><path d="M -13.421875 -25.765625 L -5.703125 -30.921875 L 6.21875 -13.03125 L 18.5625 -21.25 L 22.65625 -15.09375 L 2.59375 -1.71875 Z M -13.421875 -25.765625 "/></g></g></g><path fill="#ffffff" d="M 85.929688 55.425781 C 87.738281 54.027344 89.574219 52.664062 91.4375 51.339844 C 93.304688 50.015625 95.195312 48.730469 97.113281 47.484375 C 99.03125 46.238281 100.972656 45.03125 102.941406 43.867188 C 104.910156 42.699219 106.898438 41.574219 108.914062 40.492188 C 110.925781 39.40625 112.964844 38.367188 115.019531 37.367188 C 117.078125 36.367188 119.152344 35.410156 121.25 34.496094 C 123.347656 33.582031 125.460938 32.710938 127.59375 31.886719 C 129.726562 31.058594 131.875 30.277344 134.039062 29.539062 C 136.207031 28.800781 138.382812 28.109375 140.578125 27.460938 C 142.769531 26.8125 144.976562 26.210938 147.195312 25.65625 C 149.414062 25.097656 151.640625 24.589844 153.882812 24.125 C 156.121094 23.660156 158.371094 23.242188 160.625 22.871094 C 162.882812 22.5 165.144531 22.175781 167.414062 21.898438 C 169.6875 21.617188 171.960938 21.386719 174.242188 21.203125 C 176.519531 21.019531 178.800781 20.882812 181.085938 20.792969 C 183.371094 20.703125 185.660156 20.660156 187.945312 20.667969 C 190.234375 20.671875 192.519531 20.722656 194.804688 20.824219 C 197.089844 20.921875 199.371094 21.070312 201.648438 21.261719 C 203.925781 21.457031 206.203125 21.695312 208.46875 21.984375 C 210.738281 22.273438 213 22.605469 215.257812 22.988281 C 217.511719 23.367188 219.757812 23.796875 221.996094 24.269531 C 224.230469 24.742188 226.457031 25.261719 228.675781 25.828125 C 230.890625 26.394531 233.09375 27.007812 235.285156 27.664062 C 237.476562 28.320312 239.652344 29.023438 241.8125 29.769531 C 243.972656 30.515625 246.121094 31.304688 248.25 32.140625 C 250.378906 32.976562 252.488281 33.855469 254.582031 34.777344 C 256.675781 35.703125 258.746094 36.667969 260.800781 37.675781 C 262.851562 38.683594 264.882812 39.734375 266.894531 40.828125 C 268.902344 41.917969 270.890625 43.050781 272.851562 44.226562 C 274.8125 45.402344 276.75 46.613281 278.664062 47.871094 C 280.578125 49.125 282.460938 50.417969 284.320312 51.75 C 286.179688 53.082031 288.011719 54.453125 289.8125 55.859375 L 256.699219 98.277344 C 254.261719 96.375 251.75 94.574219 249.160156 92.875 C 246.574219 91.179688 243.921875 89.589844 241.203125 88.113281 C 238.484375 86.636719 235.710938 85.273438 232.878906 84.027344 C 230.050781 82.777344 227.171875 81.648438 224.25 80.636719 C 221.324219 79.628906 218.363281 78.742188 215.367188 77.976562 C 212.367188 77.210938 209.34375 76.570312 206.292969 76.054688 C 203.246094 75.539062 200.179688 75.148438 197.09375 74.886719 C 194.011719 74.625 190.925781 74.492188 187.832031 74.484375 C 184.738281 74.480469 181.648438 74.601562 178.566406 74.847656 C 175.480469 75.097656 172.414062 75.472656 169.363281 75.976562 C 166.308594 76.476562 163.28125 77.105469 160.28125 77.859375 C 157.28125 78.609375 154.316406 79.484375 151.390625 80.484375 C 148.460938 81.480469 145.578125 82.597656 142.742188 83.835938 C 139.90625 85.070312 137.125 86.421875 134.402344 87.886719 C 131.675781 89.351562 129.019531 90.929688 126.421875 92.613281 C 123.828125 94.300781 121.308594 96.089844 118.863281 97.984375 Z M 85.929688 55.425781 " fill-opacity="1" fill-rule="nonzero"/><g fill="#37343a" fill-opacity="1"><g transform="translate(111.353319, 86.073524)"><g><path d="M -11.875 -26.515625 L 9.703125 -39.125 L 13.1875 -33.140625 L -0.375 -25.21875 L 1.640625 -21.765625 L 13.25 -28.53125 L 16.59375 -22.8125 L 4.984375 -16.046875 L 7.203125 -12.234375 L 21.015625 -20.296875 L 24.515625 -14.3125 L 2.6875 -1.5625 Z M -11.875 -26.515625 "/></g></g></g><g fill="#37343a" fill-opacity="1"><g transform="translate(134.60387, 71.766419)"><g><path d="M 8.375 -33.25 C 11.019531 -34.050781 13.523438 -34.367188 15.890625 -34.203125 C 18.253906 -34.035156 20.296875 -33.359375 22.015625 -32.171875 C 23.734375 -30.984375 24.9375 -29.257812 25.625 -27 L 17.15625 -24.4375 C 16.800781 -25.601562 16.003906 -26.382812 14.765625 -26.78125 C 13.523438 -27.175781 12.1875 -27.15625 10.75 -26.71875 C 8.65625 -26.082031 7.238281 -25.046875 6.5 -23.609375 C 5.757812 -22.179688 5.695312 -20.453125 6.3125 -18.421875 L 7.09375 -15.84375 C 7.71875 -13.800781 8.734375 -12.382812 10.140625 -11.59375 C 11.546875 -10.800781 13.296875 -10.722656 15.390625 -11.359375 C 16.828125 -11.796875 17.953125 -12.507812 18.765625 -13.5 C 19.585938 -14.5 19.835938 -15.535156 19.515625 -16.609375 L 13.234375 -14.703125 L 11.53125 -20.328125 L 26.28125 -24.796875 L 30.953125 -9.359375 L 26.375 -7.96875 L 24.65625 -10.4375 C 22.789062 -7.53125 19.816406 -5.460938 15.734375 -4.234375 C 11.148438 -2.847656 7.34375 -3.003906 4.3125 -4.703125 C 1.289062 -6.410156 -0.9375 -9.632812 -2.375 -14.375 C -3.789062 -19.0625 -3.5625 -23.015625 -1.6875 -26.234375 C 0.1875 -29.453125 3.539062 -31.789062 8.375 -33.25 Z M 8.375 -33.25 "/></g></g></g><g fill="#37343a" fill-opacity="1"><g transform="translate(164.858719, 62.188568)"><g><path d="M 16.21875 -30.109375 C 21.207031 -30.316406 25.109375 -29.203125 27.921875 -26.765625 C 30.742188 -24.335938 32.253906 -20.691406 32.453125 -15.828125 C 32.660156 -10.960938 31.460938 -7.195312 28.859375 -4.53125 C 26.253906 -1.875 22.457031 -0.441406 17.46875 -0.234375 C 12.488281 -0.0234375 8.597656 -1.128906 5.796875 -3.546875 C 2.992188 -5.960938 1.488281 -9.617188 1.28125 -14.515625 C 1.070312 -19.410156 2.265625 -23.179688 4.859375 -25.828125 C 7.453125 -28.472656 11.238281 -29.898438 16.21875 -30.109375 Z M 16.515625 -23.1875 C 14.523438 -23.101562 13.035156 -22.4375 12.046875 -21.1875 C 11.054688 -19.945312 10.609375 -18.304688 10.703125 -16.265625 L 10.8125 -13.578125 C 10.894531 -11.523438 11.476562 -9.921875 12.5625 -8.765625 C 13.65625 -7.609375 15.195312 -7.070312 17.1875 -7.15625 C 19.175781 -7.238281 20.671875 -7.898438 21.671875 -9.140625 C 22.671875 -10.378906 23.128906 -12.023438 23.046875 -14.078125 L 22.9375 -16.765625 C 22.84375 -18.804688 22.242188 -20.40625 21.140625 -21.5625 C 20.046875 -22.726562 18.503906 -23.269531 16.515625 -23.1875 Z M 16.515625 -23.1875 "/></g></g></g><g fill="#37343a" fill-opacity="1"><g transform="translate(197.302529, 61.453131)"><g><path d="M 3.5 0.5 L 7.609375 -28.09375 L 16.796875 -26.765625 L 12.6875 1.828125 Z M 3.5 0.5 "/></g></g></g><g fill="#37343a" fill-opacity="1"><g transform="translate(211.405169, 62.69638)"><g><path d="M 25.359375 -14.4375 L 18.796875 6.03125 L 9.953125 3.1875 L 16.515625 -17.28125 L 7.484375 -20.171875 L 9.75 -27.21875 L 36.625 -18.609375 L 34.359375 -11.5625 Z M 25.359375 -14.4375 "/></g></g></g><g fill="#37343a" fill-opacity="1"><g transform="translate(237.646013, 70.782358)"><g><path d="M 16.703125 1.71875 L 28.5625 8.640625 L 25.0625 14.625 L 0.875 0.515625 L 2.375 -2.0625 L 23.515625 -11.703125 L 12.8125 -17.953125 L 16.296875 -23.9375 L 39.34375 -10.484375 L 37.84375 -7.90625 Z M 16.703125 1.71875 "/></g></g></g><g clip-path="url(#7cea241e10)"><path fill="#37343a" d="M 267.921875 216.371094 C 267.921875 216.367188 267.921875 216.363281 267.921875 216.355469 C 267.945312 216.3125 267.96875 216.265625 267.988281 216.21875 C 267.988281 216.207031 268 216.195312 268.003906 216.179688 C 268.023438 216.128906 268.039062 216.074219 268.050781 216.019531 L 268.050781 216.011719 C 268.0625 215.960938 268.070312 215.910156 268.074219 215.855469 C 268.074219 215.839844 268.074219 215.824219 268.074219 215.8125 C 268.074219 215.796875 268.074219 215.78125 268.074219 215.769531 C 268.074219 215.726562 268.074219 215.6875 268.074219 215.648438 C 268.066406 215.589844 268.054688 215.535156 268.039062 215.476562 L 268.039062 215.457031 L 251.421875 156.214844 L 235.558594 88.292969 C 235.453125 87.835938 235.175781 87.542969 234.722656 87.414062 C 234.273438 87.285156 233.882812 87.382812 233.550781 87.714844 L 203.667969 117.570312 L 171.25 117.570312 L 141.371094 87.71875 C 141.039062 87.390625 140.648438 87.289062 140.195312 87.421875 C 139.746094 87.550781 139.46875 87.84375 139.363281 88.300781 L 123.5 156.207031 L 106.875 215.449219 L 106.875 215.472656 C 106.863281 215.527344 106.851562 215.585938 106.84375 215.640625 C 106.839844 215.679688 106.839844 215.722656 106.84375 215.761719 C 106.84375 215.773438 106.84375 215.789062 106.84375 215.804688 C 106.84375 215.816406 106.84375 215.832031 106.84375 215.847656 C 106.847656 215.902344 106.855469 215.953125 106.863281 216.007812 L 106.863281 216.011719 C 106.878906 216.066406 106.894531 216.121094 106.914062 216.171875 C 106.917969 216.1875 106.921875 216.199219 106.929688 216.214844 C 106.945312 216.261719 106.96875 216.304688 106.992188 216.347656 C 106.996094 216.355469 107 216.359375 107 216.367188 C 107.03125 216.410156 107.058594 216.457031 107.09375 216.5 L 107.121094 216.535156 C 107.15625 216.574219 107.1875 216.609375 107.222656 216.640625 L 107.242188 216.660156 L 185.96875 285.625 C 185.96875 285.78125 186.003906 285.933594 186.0625 286.078125 C 186.125 286.222656 186.210938 286.347656 186.324219 286.457031 C 186.4375 286.566406 186.566406 286.652344 186.710938 286.710938 C 186.855469 286.769531 187.003906 286.800781 187.164062 286.800781 C 187.359375 286.75 187.558594 286.75 187.753906 286.800781 C 187.910156 286.800781 188.0625 286.769531 188.207031 286.710938 C 188.351562 286.652344 188.480469 286.566406 188.589844 286.457031 C 188.703125 286.347656 188.789062 286.222656 188.851562 286.078125 C 188.914062 285.933594 188.945312 285.785156 188.949219 285.628906 L 267.675781 216.667969 L 267.695312 216.652344 C 267.730469 216.621094 267.765625 216.585938 267.796875 216.546875 L 267.824219 216.511719 C 267.859375 216.46875 267.890625 216.421875 267.921875 216.371094 Z M 170.671875 120.378906 L 185.355469 135.039062 L 130.414062 153.335938 Z M 205.753906 199.351562 L 208.183594 228.152344 L 206.898438 230.789062 L 200.855469 243.183594 L 173.503906 243.183594 L 166.722656 228.167969 L 169.164062 199.355469 C 169.195312 198.984375 169.078125 198.667969 168.8125 198.40625 L 129.246094 159.371094 L 167.546875 172.632812 L 157.957031 175.371094 C 157.71875 175.4375 157.523438 175.566406 157.363281 175.753906 C 157.207031 175.945312 157.117188 176.160156 157.09375 176.40625 C 157.089844 176.46875 157.089844 176.527344 157.09375 176.589844 C 157.117188 176.96875 157.285156 177.269531 157.597656 177.492188 C 157.644531 177.527344 157.699219 177.558594 157.753906 177.585938 L 172.867188 185.132812 C 172.914062 185.15625 172.960938 185.175781 173.011719 185.191406 L 173.058594 185.207031 C 173.09375 185.214844 173.125 185.226562 173.160156 185.230469 L 173.214844 185.242188 C 173.25 185.242188 173.277344 185.25 173.308594 185.253906 L 173.441406 185.253906 C 173.480469 185.25 173.515625 185.25 173.554688 185.242188 L 173.621094 185.234375 C 173.660156 185.226562 173.695312 185.21875 173.730469 185.207031 L 173.792969 185.1875 C 173.832031 185.175781 173.867188 185.160156 173.90625 185.140625 L 173.957031 185.117188 C 174.011719 185.089844 174.0625 185.058594 174.113281 185.023438 C 174.292969 184.886719 174.425781 184.71875 174.511719 184.507812 C 174.59375 184.300781 174.617188 184.085938 174.582031 183.863281 L 172.742188 172.894531 L 185.402344 143.589844 L 176.164062 220.578125 C 176.164062 220.605469 176.164062 220.628906 176.164062 220.65625 C 176.164062 220.679688 176.164062 220.6875 176.164062 220.703125 L 176.164062 231.449219 C 176.164062 231.78125 176.28125 232.0625 176.515625 232.296875 L 186.855469 242.539062 C 186.980469 242.691406 187.136719 242.808594 187.320312 242.882812 C 187.371094 242.902344 187.421875 242.921875 187.472656 242.933594 L 187.507812 242.941406 C 187.597656 242.964844 187.6875 242.976562 187.777344 242.976562 L 187.855469 242.976562 C 187.960938 242.96875 188.058594 242.949219 188.160156 242.917969 L 188.195312 242.902344 C 188.242188 242.886719 188.292969 242.863281 188.339844 242.839844 C 188.386719 242.816406 188.429688 242.789062 188.472656 242.757812 L 188.503906 242.734375 C 188.546875 242.703125 188.585938 242.667969 188.625 242.632812 L 199.007812 232.300781 C 199.242188 232.070312 199.359375 231.785156 199.359375 231.457031 L 199.359375 220.71875 C 199.359375 220.667969 199.355469 220.613281 199.347656 220.558594 C 199.347656 220.546875 199.347656 220.53125 199.347656 220.519531 C 199.339844 220.46875 199.328125 220.421875 199.316406 220.375 C 199.300781 220.324219 199.28125 220.277344 199.257812 220.230469 C 199.253906 220.21875 199.25 220.207031 199.242188 220.195312 C 199.222656 220.152344 199.195312 220.109375 199.171875 220.070312 L 199.171875 220.0625 C 199.144531 220.019531 199.113281 219.980469 199.078125 219.941406 L 199.050781 219.914062 C 199.019531 219.878906 198.988281 219.847656 198.953125 219.820312 L 198.941406 219.808594 C 198.902344 219.777344 198.863281 219.746094 198.820312 219.71875 L 198.789062 219.699219 C 198.75 219.675781 198.707031 219.65625 198.667969 219.636719 L 198.652344 219.636719 L 189.515625 143.589844 L 202.171875 172.894531 L 200.339844 183.871094 C 200.304688 184.09375 200.328125 184.308594 200.410156 184.519531 C 200.496094 184.726562 200.628906 184.898438 200.808594 185.03125 C 200.859375 185.066406 200.910156 185.097656 200.960938 185.125 C 200.980469 185.136719 201 185.140625 201.019531 185.152344 C 201.054688 185.167969 201.089844 185.183594 201.125 185.199219 L 201.191406 185.214844 L 201.296875 185.242188 L 201.371094 185.253906 C 201.40625 185.253906 201.441406 185.253906 201.472656 185.261719 C 201.488281 185.261719 201.503906 185.261719 201.519531 185.261719 L 201.609375 185.261719 C 201.640625 185.261719 201.675781 185.261719 201.707031 185.25 L 201.761719 185.242188 C 201.796875 185.234375 201.828125 185.222656 201.863281 185.214844 L 201.910156 185.199219 C 201.957031 185.183594 202.007812 185.164062 202.054688 185.140625 L 217.171875 177.585938 C 217.582031 177.378906 217.800781 177.046875 217.828125 176.589844 C 217.832031 176.527344 217.832031 176.46875 217.828125 176.40625 C 217.785156 175.949219 217.554688 175.625 217.136719 175.433594 C 217.082031 175.40625 217.027344 175.386719 216.96875 175.371094 L 207.375 172.632812 L 245.679688 159.363281 L 206.113281 198.398438 C 205.847656 198.660156 205.726562 198.976562 205.753906 199.351562 Z M 203.082031 181.953125 L 204.367188 174.257812 L 213.351562 176.820312 Z M 189.503906 137.535156 L 246.558594 156.535156 L 204.066406 171.25 Z M 196.21875 219.527344 L 178.695312 219.527344 L 187.460938 146.480469 Z M 178.539062 221.910156 L 196.96875 221.910156 L 196.96875 230.957031 L 187.78125 240.09375 L 178.542969 230.957031 Z M 189.554688 135.039062 L 204.234375 120.371094 L 244.496094 153.335938 Z M 170.546875 174.257812 L 171.832031 181.949219 L 161.5625 176.820312 Z M 170.851562 171.25 L 128.363281 156.535156 L 185.414062 137.535156 Z M 166.734375 199.703125 L 164.335938 228.058594 L 152.753906 251.5 L 134.648438 194.660156 L 152.558594 185.71875 Z M 177.40625 245.570312 L 196.855469 245.570312 L 187.070312 250.816406 Z M 210.578125 228.050781 L 208.183594 199.703125 L 222.363281 185.71875 L 240.269531 194.660156 L 222.226562 251.308594 Z M 242.496094 193.152344 L 242.480469 193.140625 C 242.453125 193.117188 242.425781 193.09375 242.398438 193.074219 L 242.367188 193.054688 C 242.328125 193.03125 242.289062 193.007812 242.25 192.988281 L 224.15625 183.945312 L 249.664062 158.78125 L 264.671875 212.277344 Z M 233.71875 90.933594 L 248.300781 153.371094 L 205.941406 118.675781 Z M 201.28125 119.957031 L 187.460938 133.765625 L 173.632812 119.957031 Z M 141.199219 90.925781 L 168.976562 118.675781 L 126.613281 153.363281 Z M 125.253906 158.78125 L 150.765625 183.945312 L 132.664062 192.984375 L 132.644531 192.996094 L 132.582031 193.03125 L 132.554688 193.050781 L 132.53125 193.066406 L 132.488281 193.09375 L 132.445312 193.128906 L 132.425781 193.144531 L 110.25 212.277344 Z M 109.847656 215.777344 L 132.609375 196.136719 L 150.101562 251.039062 Z M 160.851562 240.492188 L 165.457031 231.175781 L 171.632812 244.894531 C 171.777344 245.21875 172.015625 245.433594 172.355469 245.542969 L 186.492188 253.214844 C 186.664062 253.308594 186.84375 253.359375 187.039062 253.359375 L 187.0625 253.359375 C 187.105469 253.359375 187.148438 253.359375 187.191406 253.359375 L 187.203125 253.359375 C 187.246094 253.355469 187.285156 253.347656 187.324219 253.339844 L 187.347656 253.339844 C 187.382812 253.332031 187.417969 253.320312 187.453125 253.304688 C 187.464844 253.300781 187.476562 253.300781 187.488281 253.292969 C 187.535156 253.277344 187.582031 253.257812 187.625 253.234375 L 202.171875 245.433594 L 202.226562 245.402344 C 202.230469 245.398438 202.238281 245.394531 202.242188 245.390625 C 202.269531 245.375 202.292969 245.355469 202.320312 245.339844 L 202.332031 245.328125 L 202.363281 245.304688 L 202.382812 245.289062 C 202.40625 245.265625 202.433594 245.242188 202.457031 245.214844 L 202.472656 245.203125 L 202.492188 245.183594 C 202.519531 245.152344 202.546875 245.117188 202.570312 245.082031 L 202.585938 245.066406 L 202.59375 245.054688 C 202.621094 245.011719 202.644531 244.96875 202.667969 244.925781 C 202.667969 244.921875 202.667969 244.917969 202.667969 244.914062 L 209.414062 231.085938 L 221.054688 254.335938 L 187.460938 283.761719 L 153.96875 254.425781 Z M 242.304688 196.136719 L 265.070312 215.78125 L 224.820312 251.035156 Z M 242.304688 196.136719 " fill-opacity="1" fill-rule="nonzero"/></g></svg>